# 3ds Max Wavefront OBJ Exporter v0.97b - (c)2007 guruware
# File Created: 04.11.2018 16:14:49

mtllib Turret5.mtl

#
# object Box002
#

v  -16.2064 12.4575 21.2017
v  -16.3328 12.1122 -8.1970
v  -3.4830 12.1122 -8.1970
v  -3.6095 12.4575 21.2017
v  -16.2064 17.1184 21.2017
v  -3.6095 17.1184 21.2017
v  -3.4830 17.4637 -8.1970
v  -16.3328 17.4637 -8.1970
# 8 vertices

vn 0.0000 -0.9999 0.0133
vn 0.0000 0.9999 0.0133
vn 0.0000 0.0000 1.0000
vn 1.0000 0.0000 0.0049
vn 0.0000 0.0000 -1.0000
vn -1.0000 0.0000 0.0049
# 6 vertex normals

vt 1.0000 0.0000 0.0000
vt 1.0000 1.0000 0.0000
vt 0.0000 1.0000 0.0000
vt 0.0000 0.0000 0.0000
# 4 texture coords

g Box002
usemtl wire_113135006
s 2
f 1/1/1 2/2/1 3/3/1 4/4/1 
s 4
f 5/4/2 6/1/2 7/2/2 8/3/2 
s 8
f 1/4/3 4/1/3 6/2/3 5/3/3 
s 16
f 4/4/4 3/1/4 7/2/4 6/3/4 
s 32
f 3/4/5 2/1/5 8/2/5 7/3/5 
s 64
f 2/4/6 1/1/6 5/2/6 8/3/6 
# 6 polygons

#
# object Box003
#

v  -29.7935 0.0000 19.7281
v  -29.7935 0.0000 8.3084
v  -17.5970 0.0000 8.3084
v  -17.5970 0.0000 19.7281
v  -21.7292 12.3292 11.6638
v  -14.5055 12.3292 11.6638
v  -14.5055 12.3292 4.9002
v  -21.7292 12.3292 4.9002
v  -31.8852 0.0300 21.9621
v  -19.6887 0.0300 21.9621
v  -16.5972 12.3592 13.8978
v  -23.8209 12.3592 13.8978
v  11.8306 0.0295 21.9858
v  11.8306 0.0295 10.5661
v  3.7663 12.3588 7.1579
v  3.7663 12.3588 13.9215
v  11.8530 0.0300 -22.0658
v  -0.6221 0.0300 -22.0658
v  -3.5999 12.3592 -14.0015
v  3.7887 12.3592 -14.0015
v  -31.9074 0.0303 -22.0419
v  -31.9074 0.0303 -10.3891
v  -23.8431 12.3595 -7.0760
v  -23.8431 12.3595 -13.9776
v  -29.7935 0.0000 2.4379
v  -29.7935 0.0000 -2.4012
v  -17.5970 0.0000 -2.4012
v  -17.5970 0.0000 2.4379
v  1.6996 12.3292 1.4233
v  1.6996 12.3292 -1.4428
v  -5.6890 12.3292 -1.4428
v  -5.6890 12.3292 1.4233
v  9.7639 0.0000 2.4379
v  9.7639 0.0000 -2.4012
v  -21.7292 12.3292 1.4233
v  -21.7292 12.3292 -1.4428
v  -29.7935 0.0000 -8.1765
v  -17.5970 0.0000 -8.1765
v  1.6996 12.3292 -4.8634
v  -5.6890 12.3292 -4.8634
v  9.7639 0.0000 -8.1765
v  -21.7292 12.3292 -4.8634
v  -29.7935 0.0000 -19.8293
v  -17.5970 0.0000 -19.8293
v  1.6996 12.3292 -11.7650
v  -5.6890 12.3292 -11.7650
v  11.8530 0.0300 -10.4130
v  3.7887 12.3592 -7.0999
v  1.6996 12.3292 4.9002
v  -5.6890 12.3292 4.9002
v  9.7639 0.0000 8.3084
v  -31.8852 0.0300 10.5424
v  -23.8209 12.3592 7.1342
v  -11.7976 0.0000 8.3084
v  -8.2481 0.0000 8.3084
v  -8.2481 0.0000 19.7281
v  -11.7976 0.0000 19.7281
v  -11.0707 12.3292 11.6638
v  -8.9684 12.3292 11.6638
v  -8.9684 12.3292 4.9002
v  -11.0707 12.3292 4.9002
v  -11.7976 0.0000 -19.8293
v  -14.5055 12.3292 -11.7650
v  -11.0707 12.3292 -11.7650
v  -11.7976 0.0000 -2.4012
v  -8.2481 0.0000 -2.4012
v  -8.2481 0.0000 2.4379
v  -11.7976 0.0000 2.4379
v  -11.0707 12.3292 -1.4428
v  -14.5055 12.3292 -1.4428
v  -14.5055 12.3292 1.4233
v  -11.0707 12.3292 1.4233
v  -11.7976 0.0000 -8.1765
v  -8.2481 0.0000 -8.1765
v  -11.0707 12.3292 -4.8634
v  -14.5055 12.3292 -4.8634
v  -8.2481 0.0000 -19.8293
v  -8.9684 12.3292 -11.7650
v  -8.9684 12.3292 -1.4428
v  -8.9684 12.3292 1.4233
v  -8.9684 12.3292 -4.8634
v  -2.7111 0.0000 8.3084
v  -2.7111 0.0000 19.7281
v  -5.6890 12.3292 11.6638
v  -2.7111 0.0000 -2.4012
v  -2.7111 0.0000 2.4379
v  -2.7111 0.0000 -8.1765
v  -2.7111 0.0000 -19.8293
v  9.7639 0.0000 19.7281
v  1.6996 12.3292 11.6638
v  -0.6444 0.0295 21.9858
v  -3.6223 12.3588 13.9215
v  9.7639 0.0000 -19.8293
v  -19.7109 0.0303 -22.0419
v  -16.6194 12.3595 -13.9776
v  -21.7292 12.3292 -11.7650
# 96 vertices

vn 0.0000 -1.0000 -0.0000
vn 0.0000 1.0000 -0.0000
vn 0.0000 0.4370 0.8995
vn 0.8995 0.4370 -0.0000
vn 0.8995 0.4370 0.0000
vn 0.0000 0.4370 -0.8995
vn -0.8995 0.4370 -0.0000
vn -0.0000 0.4370 -0.8995
vn -0.0193 -0.9998 -0.0000
vn 0.0000 -0.9998 0.0181
vn 0.7182 0.1913 0.6690
vn 0.0000 0.9998 -0.0181
vn 0.0193 0.9998 -0.0000
vn -0.7121 0.2083 -0.6705
vn 0.0000 -0.9998 0.0176
vn 0.0192 -0.9998 -0.0000
vn 0.7188 0.2133 -0.6617
vn -0.0192 0.9998 -0.0000
vn 0.0000 0.9998 -0.0176
vn -0.7257 0.1909 0.6610
vn 0.0193 -0.9998 -0.0000
vn 0.0000 -0.9998 -0.0180
vn -0.7184 0.1955 -0.6676
vn 0.0000 0.9998 0.0180
vn -0.0193 0.9998 -0.0000
vn 0.7122 0.2125 0.6691
vn 0.0000 -0.9998 -0.0184
vn -0.7054 0.2074 0.6778
vn 0.0000 0.9998 0.0184
vn 0.7108 0.1958 -0.6755
# 30 vertex normals

vt 0.4728 0.4712 0.0000
vt 0.3439 0.4712 0.0000
vt 0.3439 0.3335 0.0000
vt 0.4728 0.3335 0.0000
vt 0.0265 0.7865 0.0000
vt 0.0265 0.7049 0.0000
vt 0.1028 0.7049 0.0000
vt 0.1028 0.7865 0.0000
vt 0.8131 0.8761 0.0000
vt 0.6754 0.8761 0.0000
vt 0.6405 0.6888 0.0000
vt 0.7221 0.6888 0.0000
vt 0.9990 0.1884 0.0000
vt 0.8701 0.1884 0.0000
vt 0.8316 0.0010 0.0000
vt 0.9080 0.0010 0.0000
vt 0.9957 0.3787 0.0000
vt 0.8549 0.3787 0.0000
vt 0.8213 0.1914 0.0000
vt 0.9047 0.1914 0.0000
vt 0.8164 0.6858 0.0000
vt 0.6848 0.6858 0.0000
vt 0.6474 0.4984 0.0000
vt 0.7253 0.4984 0.0000
vt 0.2776 0.4712 0.0000
vt 0.2230 0.4712 0.0000
vt 0.2230 0.3335 0.0000
vt 0.2776 0.3335 0.0000
vt 0.1421 0.5220 0.0000
vt 0.1745 0.5220 0.0000
vt 0.1745 0.6054 0.0000
vt 0.1421 0.6054 0.0000
vt 0.7783 0.1888 0.0000
vt 0.7237 0.1888 0.0000
vt 0.7345 0.0015 0.0000
vt 0.7669 0.0015 0.0000
vt 0.5400 0.6862 0.0000
vt 0.4738 0.6862 0.0000
vt 0.5122 0.4989 0.0000
vt 0.5515 0.4989 0.0000
vt 0.5947 0.6862 0.0000
vt 0.5838 0.4989 0.0000
vt 0.1578 0.4712 0.0000
vt 0.1578 0.3335 0.0000
vt 0.2131 0.5220 0.0000
vt 0.2131 0.6054 0.0000
vt 0.6585 0.1888 0.0000
vt 0.6959 0.0015 0.0000
vt 0.6599 0.6862 0.0000
vt 0.6225 0.4989 0.0000
vt 0.0262 0.4712 0.0000
vt 0.0262 0.3335 0.0000
vt 0.2910 0.5220 0.0000
vt 0.2910 0.6054 0.0000
vt 0.6332 0.1884 0.0000
vt 0.5017 0.1884 0.0000
vt 0.5927 0.0010 0.0000
vt 0.6706 0.0010 0.0000
vt 0.1028 0.5220 0.0000
vt 0.1028 0.6054 0.0000
vt 0.8446 0.1888 0.0000
vt 0.8061 0.0015 0.0000
vt 0.4485 0.6858 0.0000
vt 0.3196 0.6858 0.0000
vt 0.4107 0.4984 0.0000
vt 0.4870 0.4984 0.0000
vt 0.3439 0.2680 0.0000
vt 0.3439 0.2279 0.0000
vt 0.4728 0.2279 0.0000
vt 0.4728 0.2680 0.0000
vt 0.0265 0.6662 0.0000
vt 0.0265 0.6424 0.0000
vt 0.1028 0.6424 0.0000
vt 0.1028 0.6662 0.0000
vt 0.5864 0.8766 0.0000
vt 0.5463 0.8766 0.0000
vt 0.5544 0.6892 0.0000
vt 0.5782 0.6892 0.0000
vt 0.7287 0.3792 0.0000
vt 0.6632 0.3792 0.0000
vt 0.6981 0.1918 0.0000
vt 0.7369 0.1918 0.0000
vt 0.2230 0.2680 0.0000
vt 0.2230 0.2279 0.0000
vt 0.2776 0.2279 0.0000
vt 0.2776 0.2680 0.0000
vt 0.1745 0.6662 0.0000
vt 0.1745 0.7049 0.0000
vt 0.1421 0.7049 0.0000
vt 0.1421 0.6662 0.0000
vt 0.1578 0.2680 0.0000
vt 0.1578 0.2279 0.0000
vt 0.2131 0.6662 0.0000
vt 0.2131 0.7049 0.0000
vt 0.0262 0.2680 0.0000
vt 0.0262 0.2279 0.0000
vt 0.2910 0.6662 0.0000
vt 0.2910 0.7049 0.0000
vt 0.7688 0.3792 0.0000
vt 0.7607 0.1918 0.0000
vt 0.1745 0.6424 0.0000
vt 0.1421 0.6424 0.0000
vt 0.2131 0.6424 0.0000
vt 0.2910 0.6424 0.0000
vt 0.3439 0.1654 0.0000
vt 0.4728 0.1654 0.0000
vt 0.0265 0.6054 0.0000
vt 0.4838 0.8766 0.0000
vt 0.5174 0.6892 0.0000
vt 0.2230 0.1654 0.0000
vt 0.2776 0.1654 0.0000
vt 0.1578 0.1654 0.0000
vt 0.0262 0.1654 0.0000
vt 0.8313 0.3792 0.0000
vt 0.7977 0.1918 0.0000
vt 0.3439 0.0246 0.0000
vt 0.4728 0.0246 0.0000
vt 0.0265 0.5220 0.0000
vt 0.4604 0.8762 0.0000
vt 0.3196 0.8762 0.0000
vt 0.4107 0.6888 0.0000
vt 0.4941 0.6888 0.0000
vt 0.2230 0.0246 0.0000
vt 0.2776 0.0246 0.0000
vt 0.1578 0.0246 0.0000
vt 0.0262 0.0246 0.0000
vt 0.6518 0.8766 0.0000
vt 0.6169 0.6892 0.0000
vt 0.6394 0.3787 0.0000
vt 0.5017 0.3787 0.0000
vt 0.5927 0.1914 0.0000
vt 0.6743 0.1914 0.0000
vt 0.1745 0.7865 0.0000
vt 0.1421 0.7865 0.0000
vt 0.2131 0.7865 0.0000
vt 0.2910 0.7865 0.0000
vt 0.4980 0.4948 0.0000
vt 0.3691 0.4948 0.0000
vt 0.4980 0.3571 0.0000
vt 0.0013 0.8101 0.0000
vt 0.0013 0.7285 0.0000
vt 0.0776 0.8101 0.0000
vt 0.4983 0.0013 0.0000
vt 0.4983 0.1421 0.0000
vt 0.3694 0.0013 0.0000
vt 0.0010 0.4987 0.0000
vt 0.0774 0.4987 0.0000
vt 0.0010 0.5821 0.0000
vt 0.0010 0.0010 0.0000
vt 0.1326 0.0010 0.0000
vt 0.0010 0.1418 0.0000
vt 0.3162 0.4984 0.0000
vt 0.3162 0.5818 0.0000
vt 0.2383 0.4984 0.0000
vt 0.0013 0.4950 0.0000
vt 0.0013 0.3573 0.0000
vt 0.1328 0.4950 0.0000
vt 0.3160 0.8103 0.0000
vt 0.2380 0.8103 0.0000
vt 0.3160 0.7288 0.0000
# 160 texture coords

g Box003
usemtl 03___Default
s 2
f 9/5/7 10/6/7 11/7/7 12/8/7 
s 4
f 13/9/8 14/10/8 15/11/8 16/12/8 
s 8
f 17/13/9 18/14/9 19/15/9 20/16/9 
s 16
f 21/17/10 22/18/11 23/19/11 24/20/11 
s 32
f 25/21/12 26/22/12 27/23/12 28/24/12 
s 64
f 29/25/13 30/26/13 31/27/13 32/28/13 
s 2
f 33/29/7 34/30/7 35/31/7 36/32/7 
s 4
f 37/33/8 38/34/8 39/35/8 40/36/8 
s 16
f 41/37/10 42/38/10 38/39/10 37/40/10 
s 64
f 33/41/13 10/42/13 16/43/13 43/44/13 
f 34/45/13 33/41/13 43/44/13 44/46/13 
s 2
f 34/30/7 45/47/7 46/48/7 35/31/7 
s 4
f 38/34/8 47/49/8 48/50/8 39/35/8 
s 16
f 42/38/10 49/51/10 47/52/10 38/39/10 
s 64
f 45/53/13 34/45/13 44/46/13 50/54/13 
s 2
f 45/47/7 51/55/7 52/56/7 46/48/7 
s 4
f 47/49/8 53/57/8 54/58/8 48/50/8 
s 16
f 55/59/10 25/60/10 28/61/10 56/62/10 
s 2
f 10/6/7 33/29/7 36/32/7 11/7/7 
s 4
f 57/63/8 37/33/8 40/36/8 58/64/8 
s 16
f 59/65/10 41/37/10 37/40/10 57/66/10 
s 64
f 60/67/13 17/68/13 20/69/13 61/70/13 
s 2
f 62/71/7 63/72/7 64/73/7 65/74/7 
s 4
f 66/75/8 67/76/8 68/77/8 69/78/8 
s 8
f 65/79/9 64/80/9 67/81/9 66/82/9 
s 32
f 70/83/12 52/84/12 71/85/12 72/86/12 
s 2
f 73/87/7 74/88/7 75/89/7 76/90/7 
s 4
f 77/91/8 78/92/8 79/93/8 80/94/8 
s 2
f 81/95/7 82/96/7 74/88/7 73/87/7 
s 4
f 83/97/8 84/98/8 78/92/8 77/91/8 
s 2
f 70/99/7 85/100/7 82/96/7 81/95/7 
s 4
f 72/101/8 71/102/8 84/98/8 83/97/8 
s 2
f 76/90/7 75/89/7 63/72/7 62/71/7 
s 4
f 80/94/8 79/93/8 15/11/8 69/78/8 
s 32
f 85/103/12 70/83/12 72/86/12 86/104/12 
s 4
f 87/105/8 77/91/8 80/94/8 88/106/8 
f 89/107/8 83/97/8 77/91/8 87/105/8 
f 86/108/8 72/101/8 83/97/8 89/107/8 
f 88/106/8 80/94/8 69/78/8 68/77/8 
s 2
f 63/72/7 90/109/7 91/110/7 64/73/7 
s 4
f 67/76/8 92/111/8 58/64/8 68/77/8 
s 8
f 64/80/9 91/112/9 92/113/9 67/81/9 
s 2
f 74/88/7 93/114/7 94/115/7 75/89/7 
f 82/96/7 95/116/7 93/114/7 74/88/7 
f 85/100/7 96/117/7 95/116/7 82/96/7 
f 75/89/7 94/115/7 90/109/7 63/72/7 
s 32
f 96/118/14 85/103/12 86/104/12 54/119/14 
s 4
f 39/35/8 87/105/8 88/106/8 40/36/8 
f 48/50/8 89/107/8 87/105/8 39/35/8 
f 54/58/8 86/108/8 89/107/8 48/50/8 
f 40/36/8 88/106/8 68/77/8 58/64/8 
s 2
f 90/109/7 59/120/7 97/121/7 91/110/7 
s 4
f 92/111/8 98/122/8 57/63/8 58/64/8 
s 8
f 99/123/9 21/124/9 24/125/9 100/126/9 
s 2
f 93/114/7 42/127/7 41/128/7 94/115/7 
f 95/116/7 49/129/7 42/127/7 93/114/7 
f 96/117/7 101/130/7 49/129/7 95/116/7 
f 94/115/7 41/128/7 59/120/7 90/109/7 
f 11/7/7 62/71/7 65/74/7 12/8/7 
s 4
f 14/10/8 66/75/8 69/78/8 15/11/8 
s 8
f 12/131/9 65/79/9 66/82/9 14/132/9 
s 2
f 35/31/7 73/87/7 76/90/7 36/32/7 
f 46/48/7 81/95/7 73/87/7 35/31/7 
f 52/56/7 70/99/7 81/95/7 46/48/7 
f 36/32/7 76/90/7 62/71/7 11/7/7 
s 32
f 102/133/12 29/134/12 32/135/12 103/136/12 
s 4
f 78/92/8 44/137/8 43/138/8 79/93/8 
f 84/98/8 50/139/8 44/137/8 78/92/8 
f 71/102/8 104/140/8 50/139/8 84/98/8 
f 79/93/8 43/138/8 16/12/8 15/11/8 
s off
f 10/6/15 9/5/15 17/141/15 60/142/15 
f 9/5/16 12/8/16 18/143/16 17/141/16 
f 12/131/17 14/132/17 19/15/17 18/14/17 
f 14/10/18 13/9/18 20/144/18 19/145/18 
f 13/9/19 16/12/19 61/146/19 20/144/19 
f 16/43/20 10/42/20 60/67/20 61/70/20 
f 91/110/21 97/121/21 21/147/21 99/148/21 
f 97/121/22 59/120/22 22/149/22 21/147/22 
f 59/65/23 57/66/23 23/19/23 22/18/23 
f 57/63/24 98/122/24 24/150/24 23/151/24 
f 98/122/25 92/111/25 100/152/25 24/150/25 
f 92/113/26 91/112/26 99/123/26 100/126/26 
f 49/129/27 101/130/27 25/153/27 55/154/27 
f 101/130/28 96/117/28 26/155/28 25/153/28 
f 96/118/29 54/119/29 27/23/29 26/22/29 
f 54/58/30 53/57/30 28/156/30 27/157/30 
f 53/57/31 47/49/31 56/158/31 28/156/31 
f 47/52/32 49/51/32 55/59/32 56/62/32 
f 52/56/33 51/55/33 29/159/33 102/160/33 
f 51/55/15 45/47/15 30/161/15 29/159/15 
f 45/53/34 50/54/34 31/27/34 30/26/34 
f 50/139/19 104/140/19 32/162/19 31/163/19 
f 104/140/35 71/102/35 103/164/35 32/162/35 
f 71/85/36 52/84/36 102/133/36 103/136/36 
# 94 polygons

