# 3ds Max Wavefront OBJ Exporter v0.97b - (c)2007 guruware
# File Created: 04.11.2018 15:00:18

mtllib Turret2.mtl

#
# object Box002
#

v  -16.2064 12.4575 21.2017
v  -16.3328 12.1122 -8.1970
v  -3.4830 12.1122 -8.1970
v  -3.6095 12.4575 21.2017
v  -16.2064 17.1184 21.2017
v  -3.6095 17.1184 21.2017
v  -3.4830 17.4637 -8.1970
v  -16.3328 17.4637 -8.1970
# 8 vertices

vn 0.0000 -0.9999 0.0133
vn 0.0000 0.9999 0.0133
vn 0.0000 0.0000 1.0000
vn 1.0000 0.0000 0.0049
vn 0.0000 0.0000 -1.0000
vn -1.0000 0.0000 0.0049
# 6 vertex normals

vt 1.0000 0.0000 0.0000
vt 1.0000 1.0000 0.0000
vt 0.0000 1.0000 0.0000
vt 0.0000 0.0000 0.0000
# 4 texture coords

g Box002
usemtl wire_113135006
s 2
f 1/1/1 2/2/1 3/3/1 4/4/1 
s 4
f 5/4/2 6/1/2 7/2/2 8/3/2 
s 8
f 1/4/3 4/1/3 6/2/3 5/3/3 
s 16
f 4/4/4 3/1/4 7/2/4 6/3/4 
s 32
f 3/4/5 2/1/5 8/2/5 7/3/5 
s 64
f 2/4/6 1/1/6 5/2/6 8/3/6 
# 6 polygons

#
# object Box003
#

v  -29.7935 0.0000 19.7281
v  -29.7935 0.0000 8.3084
v  -17.5970 0.0000 8.3084
v  -17.5970 0.0000 19.7281
v  -21.7292 12.3292 11.6638
v  -14.5055 12.3292 11.6638
v  -14.5055 12.3292 4.9002
v  -21.7292 12.3292 4.9002
v  9.7639 0.0000 19.7281
v  9.7639 0.0000 8.3084
v  1.6996 12.3292 4.9002
v  1.6996 12.3292 11.6638
v  9.7639 0.0000 -19.8293
v  -2.7111 0.0000 -19.8293
v  -5.6890 12.3292 -11.7650
v  1.6996 12.3292 -11.7650
v  -29.7935 0.0000 -19.8293
v  -29.7935 0.0000 -8.1765
v  -21.7292 12.3292 -4.8634
v  -21.7292 12.3292 -11.7650
v  -29.7935 0.0000 2.4379
v  -29.7935 0.0000 -2.4012
v  -17.5970 0.0000 -2.4012
v  -17.5970 0.0000 2.4379
v  1.6996 12.3292 1.4233
v  1.6996 12.3292 -1.4428
v  -5.6890 12.3292 -1.4428
v  -5.6890 12.3292 1.4233
v  9.7639 0.0000 2.4379
v  9.7639 0.0000 -2.4012
v  -21.7292 12.3292 1.4233
v  -21.7292 12.3292 -1.4428
v  -17.5970 0.0000 -8.1765
v  1.6996 12.3292 -4.8634
v  -5.6890 12.3292 -4.8634
v  9.7639 0.0000 -8.1765
v  -17.5970 0.0000 -19.8293
v  -5.6890 12.3292 4.9002
v  -11.7976 0.0000 8.3084
v  -8.2481 0.0000 8.3084
v  -8.2481 0.0000 19.7281
v  -11.7976 0.0000 19.7281
v  -11.0707 12.3292 11.6638
v  -8.9684 12.3292 11.6638
v  -8.9684 12.3292 4.9002
v  -11.0707 12.3292 4.9002
v  -11.7976 0.0000 -19.8293
v  -14.5055 12.3292 -11.7650
v  -11.0707 12.3292 -11.7650
v  -11.7976 0.0000 -2.4012
v  -8.2481 0.0000 -2.4012
v  -8.2481 0.0000 2.4379
v  -11.7976 0.0000 2.4379
v  -11.0707 12.3292 -1.4428
v  -14.5055 12.3292 -1.4428
v  -14.5055 12.3292 1.4233
v  -11.0707 12.3292 1.4233
v  -11.7976 0.0000 -8.1765
v  -8.2481 0.0000 -8.1765
v  -11.0707 12.3292 -4.8634
v  -14.5055 12.3292 -4.8634
v  -8.2481 0.0000 -19.8293
v  -8.9684 12.3292 -11.7650
v  -8.9684 12.3292 -1.4428
v  -8.9684 12.3292 1.4233
v  -8.9684 12.3292 -4.8634
v  -2.7111 0.0000 8.3084
v  -2.7111 0.0000 19.7281
v  -5.6890 12.3292 11.6638
v  -2.7111 0.0000 -2.4012
v  -2.7111 0.0000 2.4379
v  -2.7111 0.0000 -8.1765
# 72 vertices

vn 0.0000 -1.0000 -0.0000
vn 0.0000 1.0000 -0.0000
vn 0.0000 0.4370 0.8995
vn 0.8995 0.4370 -0.0000
vn 0.8995 0.4370 0.0000
vn 0.0000 0.4370 -0.8995
vn -0.0000 0.4370 -0.8995
vn -0.8995 0.4370 -0.0000
# 8 vertex normals

vt 1.0000 0.0000 0.0000
vt 1.0000 0.2887 0.0000
vt 0.6917 0.2887 0.0000
vt 0.6917 0.0000 0.0000
vt 0.0000 0.0000 0.0000
vt 0.3083 0.0000 0.0000
vt 0.3083 0.2887 0.0000
vt 0.0000 0.2887 0.0000
vt 0.3083 1.0000 0.0000
vt 0.0000 1.0000 0.0000
vt 0.2887 0.0000 0.0000
vt 0.2887 1.0000 0.0000
vt 0.3154 0.0000 0.0000
vt 0.3154 1.0000 0.0000
vt 0.2946 0.0000 0.0000
vt 0.2946 1.0000 0.0000
vt 1.0000 0.4371 0.0000
vt 1.0000 0.5594 0.0000
vt 0.6917 0.5594 0.0000
vt 0.6917 0.4371 0.0000
vt 0.6846 0.5594 0.0000
vt 0.6846 0.4371 0.0000
vt 0.4371 0.0000 0.0000
vt 0.5594 0.0000 0.0000
vt 0.5594 1.0000 0.0000
vt 0.4371 1.0000 0.0000
vt 0.5629 0.0000 0.0000
vt 0.7113 0.0000 0.0000
vt 0.7113 1.0000 0.0000
vt 0.5629 1.0000 0.0000
vt 0.4406 0.0000 0.0000
vt 0.4406 1.0000 0.0000
vt 1.0000 0.7054 0.0000
vt 0.6917 0.7054 0.0000
vt 0.6846 0.7054 0.0000
vt 0.7054 0.0000 0.0000
vt 0.7054 1.0000 0.0000
vt 1.0000 1.0000 0.0000
vt 0.6917 1.0000 0.0000
vt 0.6846 1.0000 0.0000
vt 0.6846 0.2887 0.0000
vt 0.5451 0.2887 0.0000
vt 0.4553 0.2887 0.0000
vt 0.4553 0.0000 0.0000
vt 0.5451 0.0000 0.0000
vt 0.4549 0.0000 0.0000
vt 0.5447 0.0000 0.0000
vt 0.5447 0.2887 0.0000
vt 0.4549 0.2887 0.0000
vt 0.5447 1.0000 0.0000
vt 0.4549 1.0000 0.0000
vt 0.5451 1.0000 0.0000
vt 0.5451 0.5594 0.0000
vt 0.4553 0.5594 0.0000
vt 0.4553 0.4371 0.0000
vt 0.5451 0.4371 0.0000
vt 0.4549 0.5594 0.0000
vt 0.3083 0.5594 0.0000
vt 0.3083 0.4371 0.0000
vt 0.4549 0.4371 0.0000
vt 0.5451 0.7054 0.0000
vt 0.4553 0.7054 0.0000
vt 0.4549 0.7054 0.0000
vt 0.3083 0.7054 0.0000
vt 0.4553 1.0000 0.0000
vt 0.5447 0.5594 0.0000
vt 0.5447 0.4371 0.0000
vt 0.5447 0.7054 0.0000
vt 0.3154 0.2887 0.0000
vt 0.6846 0.0000 0.0000
vt 0.3154 0.5594 0.0000
vt 0.3154 0.4371 0.0000
vt 0.3154 0.7054 0.0000
vt 0.0000 0.5594 0.0000
vt 0.0000 0.4371 0.0000
vt 0.0000 0.7054 0.0000
# 76 texture coords

g Box003
usemtl wire_177148027
s 2
f 9/5/7 10/6/7 11/7/7 12/8/7 
s 4
f 13/9/8 14/10/8 15/11/8 16/12/8 
s 8
f 9/9/9 12/10/9 14/13/9 13/14/9 
s 16
f 17/9/10 18/15/11 19/16/11 20/14/11 
s 32
f 21/9/12 22/17/13 23/18/13 24/14/12 
s 64
f 25/9/14 26/19/14 27/20/14 28/14/14 
s 2
f 29/21/7 30/22/7 31/23/7 32/24/7 
s 4
f 33/21/8 34/22/8 35/25/8 36/26/8 
s 16
f 37/27/10 38/28/10 34/29/10 33/30/10 
s 64
f 29/31/14 10/32/14 16/33/14 39/34/14 
f 30/35/14 29/31/14 39/34/14 40/36/14 
s 2
f 30/22/7 26/37/7 41/38/7 31/23/7 
s 4
f 34/22/8 42/37/8 43/39/8 35/25/8 
s 16
f 38/28/10 44/40/10 42/41/10 34/29/10 
s 64
f 26/19/14 30/35/14 40/36/14 27/20/14 
s 2
f 26/37/7 25/42/7 45/43/7 41/38/7 
s 4
f 42/37/8 24/42/8 23/44/8 43/39/8 
s 16
f 44/40/10 21/5/10 24/42/10 42/41/10 
s 2
f 10/6/7 29/21/7 32/24/7 11/7/7 
s 4
f 19/6/8 33/21/8 36/26/8 46/45/8 
s 16
f 18/15/11 37/27/10 33/30/10 19/16/11 
s 64
f 10/32/14 9/5/14 13/42/14 16/33/14 
s 2
f 47/46/7 48/47/7 49/48/7 50/49/7 
s 4
f 51/50/8 52/51/8 53/52/8 54/53/8 
s 8
f 50/50/9 49/51/9 52/54/9 51/55/9 
s 32
f 55/49/12 45/8/12 56/43/12 57/56/12 
s 2
f 58/57/7 59/58/7 60/59/7 61/60/7 
s 4
f 62/61/8 63/62/8 64/63/8 65/64/8 
s 2
f 66/65/7 67/66/7 59/58/7 58/57/7 
s 4
f 68/67/8 69/68/8 63/62/8 62/61/8 
s 2
f 55/56/7 70/69/7 67/66/7 66/65/7 
s 4
f 57/55/8 56/13/8 69/68/8 68/67/8 
s 2
f 61/60/7 60/59/7 48/47/7 47/46/7 
s 4
f 65/64/8 64/63/8 15/11/8 54/53/8 
s 32
f 70/48/12 55/49/12 57/56/12 71/69/12 
s 4
f 72/70/8 62/61/8 65/64/8 73/71/8 
f 74/72/8 68/67/8 62/61/8 72/70/8 
f 71/54/8 57/55/8 68/67/8 74/72/8 
f 73/71/8 65/64/8 54/53/8 53/52/8 
s 2
f 48/47/7 75/73/7 76/17/7 49/48/7 
s 4
f 52/51/8 77/74/8 46/45/8 53/52/8 
s 8
f 49/51/9 76/74/9 77/44/9 52/54/9 
s 2
f 59/58/7 78/75/7 79/76/7 60/59/7 
f 67/66/7 80/77/7 78/75/7 59/58/7 
f 70/69/7 22/18/7 80/77/7 67/66/7 
f 60/59/7 79/76/7 75/73/7 48/47/7 
s 32
f 22/17/13 70/48/12 71/69/12 23/18/13 
s 4
f 35/25/8 72/70/8 73/71/8 36/26/8 
f 43/39/8 74/72/8 72/70/8 35/25/8 
f 23/44/8 71/54/8 74/72/8 43/39/8 
f 36/26/8 73/71/8 53/52/8 46/45/8 
s 2
f 75/73/7 18/12/7 17/9/7 76/17/7 
s 4
f 77/74/8 20/5/8 19/6/8 46/45/8 
s 8
f 76/74/9 17/5/9 20/42/9 77/44/9 
s 2
f 78/75/7 38/78/7 37/79/7 79/76/7 
f 80/77/7 44/80/7 38/78/7 78/75/7 
f 22/18/7 21/14/7 44/80/7 80/77/7 
f 79/76/7 37/79/7 18/12/7 75/73/7 
f 11/7/7 47/46/7 50/49/7 12/8/7 
s 4
f 14/10/8 51/50/8 54/53/8 15/11/8 
s 8
f 12/10/9 50/50/9 51/55/9 14/13/9 
s 2
f 31/23/7 58/57/7 61/60/7 32/24/7 
f 41/38/7 66/65/7 58/57/7 31/23/7 
f 45/43/7 55/56/7 66/65/7 41/38/7 
f 32/24/7 61/60/7 47/46/7 11/7/7 
s 32
f 45/8/12 25/5/12 28/42/12 56/43/12 
s 4
f 63/62/8 40/78/8 39/79/8 64/63/8 
f 69/68/8 27/80/8 40/78/8 63/62/8 
f 56/13/8 28/14/8 27/80/8 69/68/8 
f 64/63/8 39/79/8 16/12/8 15/11/8 
# 70 polygons

